Coordinates
nRows=14
nColumns=24

# SIMM Motion File Header:
name Coordinates
datacolumns 24
datarows 14
otherdata 1
range 1.12500000000000000000 1.13799999999999990000

Units are S.I. units (second, meters, Newtons, ...)
Angles are in degrees.

endheader
time	pelvis_tx	pelvis_ty	pelvis_tz	pelvis_tilt	pelvis_list	pelvis_rotation	hip_flexion_r	hip_adduction_r	hip_rotation_r	knee_angle_r	ankle_angle_r	subtalar_angle_r	mtp_angle_r	hip_flexion_l	hip_adduction_l	hip_rotation_l	knee_angle_l	ankle_angle_l	subtalar_angle_l	mtp_angle_l	lumbar_extension	lumbar_bending	lumbar_rotation
      1.12500000000000000000	      0.57667311979774605000	      1.03623934949738780000	      0.05451409453767208000	      4.72327788282837440000	     -2.71351832875737120000	     -1.35001357345527450000	    -13.56034838559660500000	      4.82114140101537010000	     -1.17034295251493140000	     -5.85374602151086960000	     10.83616789165311400000	     -0.04906394794360650900	      0.01059227884526449200	     19.48608968857141100000	     -5.42992364146524500000	     -9.11021643101992670000	    -16.73103607113560200000	     -1.50693405726379550000	     -0.00096306007632149433	     -0.02079229149609286200	    -16.56866033103948500000	      3.55363753930600890000	      2.82575842883670970000
      1.12599999999999990000	      0.57659995726459312000	      1.03607368626554490000	      0.05451653702145396000	      4.72000687478480610000	     -2.74750322836613890000	     -1.36939406297435260000	    -13.64336663653529100000	      4.85072215392472920000	     -1.13069008063538570000	     -5.82517149056383320000	     10.86598235918823000000	     -0.05059039043047058200	      0.01123555666929952300	     19.46462141839951700000	     -5.44337370796696260000	     -9.09317819175173980000	    -16.39825030990081300000	     -1.51839538454084820000	     -0.00094585412585903716	     -0.02064018566415072200	    -16.57017955850498900000	      3.57794313010047030000	      2.84279070978965360000
      1.12700000000000000000	      0.57652766931521759000	      1.03590719240004650000	      0.05451824156811158800	      4.71689248159513410000	     -2.78133993923639530000	     -1.38887816850223440000	    -13.72633922867999200000	      4.87998013433401480000	     -1.09106493010571200000	     -5.79717737445014960000	     10.89556775182869700000	     -0.05211272484672826300	      0.01189386855469963200	     19.44299806919949300000	     -5.45654674635372850000	     -9.07481041510042630000	    -16.06753502183290300000	     -1.52889120454699850000	     -0.00092906776561495902	     -0.02048889717308548900	    -16.57185487043361100000	      3.60200527725569050000	      2.85975163065965930000
      1.12800000000000010000	      0.57645625809507772000	      1.03573989246339050000	      0.05451920744521999300	      4.71393604559504010000	     -2.81501876548913720000	     -1.40846454000624720000	    -13.80926106965165300000	      4.90890218759607060000	     -1.05147794304908790000	     -5.76977036200521990000	     10.92491605364315200000	     -0.05363000848342335700	      0.01256586207882872700	     19.42122954627782100000	     -5.46944336729703730000	     -9.05512653903850940000	    -15.73894917671842600000	     -1.53841665933080240000	     -0.00091269798111397540	     -0.02033842850037894200	    -16.57368770432103500000	      3.62581304286457230000	      2.87663836020137880000
      1.12900000000000000000	      0.57638572624292272000	      1.03557181171972280000	      0.05451943406792900800	      4.71113872102565880000	     -2.84853002693036040000	     -1.42815183381082920000	    -13.89212684957603000000	      4.93747518312803550000	     -1.01193906678946570000	     -5.74295688289356310000	     10.95402504867990600000	     -0.05513931410354804000	      0.01324094683744624600	     19.39932597980649500000	     -5.48206418884373910000	     -9.03414076450197890000	    -15.41255158319863700000	     -1.54696773561792700000	     -0.00089675895784975025	     -0.02018877713889601100	    -16.57567919431082600000	      3.64935551329342720000	      2.89344808645747080000
      1.12999999999999990000	      0.57631607645512462000	      1.03540297529939270000	      0.05451892105158825200	      4.70850148797289240000	     -2.88186411093009730000	     -1.44793869705804100000	    -13.97493110962751900000	      4.96568609171035200000	     -0.97245823405051435000	     -5.71674323941506120000	     10.98288798505088700000	     -0.05663975212901940800	      0.01391692551898143100	     19.37729765022331900000	     -5.49440987973914210000	     -9.01186802113316790000	    -15.08840088751989800000	     -1.55454126795690880000	     -0.00088124718553750955	     -0.02003994204874473600	    -16.57783023220046200000	      3.67262185983393640000	      2.91017801646996470000
      1.13100000000000000000	      0.57624731140604701000	      1.03523340802959200000	      0.05451766821406978800	      4.70602515231599930000	     -2.91501147985804730000	     -1.46782376766658460000	    -14.05766826076797000000	      4.99352199944090990000	     -0.93304534534709604000	     -5.69113560750335520000	     11.01149380022377300000	     -0.05813229503282978100	      0.01459963690214967700	     19.35515497182726100000	     -5.50648115785330280000	     -8.98832394828998460000	    -14.76655555048734100000	     -1.56113494653443860000	     -0.00086614175523555363	     -0.01989192422092150900	    -16.58014147619615400000	      3.69560134857758090000	      2.92682537839576810000
      1.13200000000000010000	      0.57617943403083605000	      1.03506313496823310000	      0.05451567554199440700	      4.70371034040059930000	     -2.94796265858453840000	     -1.48780568336073320000	    -14.14033254995728900000	      5.02097009091296710000	     -0.89371004325439318000	     -5.66613998020044460000	     11.03983177695510100000	     -0.05961791220876338400	      0.01529505668217431800	     19.33290852964841700000	     -5.51827876806099390000	     -8.96352488467924320000	    -14.44707380734036700000	     -1.56674732739267710000	     -0.00085141943253276933	     -0.01974472378551818700	    -16.58261331754150100000	      3.71828332550213550000	      2.94338742673090660000
      1.13300000000000000000	      0.57611244782464877000	      1.03489218193625350000	      0.05451294316568892900	      4.70155749118321880000	     -2.98070821722533760000	     -1.50788309247803040000	    -14.22291802469072200000	      5.04801762581063680000	     -0.85446146336582285000	     -5.64176208554588230000	     11.06789650357330300000	     -0.06109582271285234800	      0.01600083436713837700	     19.31056912068189400000	     -5.52980345456117920000	     -8.93748786075530610000	    -14.13001362721165700000	     -1.57137784310017440000	     -0.00083707223375086373	     -0.01959833653674040000	    -16.58524584249530800000	      3.74065719513321420000	      2.95986144802115580000
      1.13399999999999990000	      0.57604635676719884000	      1.03472057533701430000	      0.05450947136208109100	      4.69956685439049070000	     -3.01323877532361360000	     -1.52805465531082160000	    -14.30541855122234400000	      5.07465194855575690000	     -0.81530820505223334000	     -5.61800738184525810000	     11.09568839841648500000	     -0.06256333035553682300	      0.01670541426046610200	     19.28814773838992400000	     -5.54105595751572630000	     -8.91023058016475210000	    -13.81543268942538000000	     -1.57502680804696650000	     -0.00082310949507900008	     -0.01945275392728143900	    -16.58803883926867700000	      3.76271242693891410000	      2.97624476376967230000
      1.13500000000000000000	      0.57598116485673612000	      1.03454834131465970000	      0.05450526058175023100	      4.69773851150307650000	     -3.04554506225261480000	     -1.54831902376887600000	    -14.38782789345202500000	      5.10086057671613790000	     -0.77625884739932416000	     -5.59488121807654970000	     11.12320296610075200000	     -0.06401970004184651100	      0.01740640176611784100	     19.26565548320546700000	     -5.55203707003230650000	     -8.88177137301732960000	    -13.50338837829449200000	     -1.57769541175480170000	     -0.00080951994157403854	     -0.01930796985131095400	    -16.59099187241124100000	      3.78443862929241300000	      2.99253472944265560000
      1.13600000000000010000	      0.57591687602595709000	      1.03437550557492240000	      0.05450031144692180100	      4.69607237480620480000	     -3.07761792231787990000	     -1.56867484256634390000	    -14.47013973193383400000	      5.12663121331586250000	     -0.73732191784929602000	     -5.57238883307840020000	     11.15043123888971400000	     -0.06546600120385122300	      0.01810982222094355300	     19.24310354509540500000	     -5.56274763640126140000	     -8.85212917648495080000	    -13.19393775853041000000	     -1.57938572397673060000	     -0.00079627392221980097	     -0.01916398107451611600	    -16.59410429146876700000	      3.80582555718527790000	      3.00872873777428840000
      1.13700000000000000000	      0.57585349443897582000	      1.03420209391436630000	      0.05449462472346969200	      4.69456817981904350000	     -3.10944829820200310000	     -1.58912076021543690000	    -14.55234762730324700000	      5.15195172480119370000	     -0.69850564184405373000	     -5.55053528345005360000	     11.17736474901770200000	     -0.06690331950696641600	      0.01882164967044313400	     19.22050324432303400000	     -5.57318852577498800000	     -8.82132352709140120000	    -12.88713753443346400000	     -1.58010070507390690000	     -0.00078334094394949408	     -0.01902078409584846000	    -16.59737519350547800000	      3.82686309180516030000	      3.02482422511187950000
      1.13799999999999990000	      0.57579102479356381000	      1.03402813274331050000	      0.05448820129377258300	      4.69322547734239670000	     -3.14102721382757990000	     -1.60965544008498140000	    -14.63444498402744600000	      5.17681011756387570000	     -0.65981770325539768000	     -5.52932536209759460000	     11.20400039075767900000	     -0.06833100495234067900	      0.01953951741560999000	     19.19786607315095800000	     -5.58336060523554420000	     -8.78937455359266910000	    -12.58304400940306200000	     -1.57984421657345700000	     -0.00077070699337541276	     -0.01887837169101502800	    -16.60080338479367500000	      3.84754121948962700000	      3.04081867757335320000
